<svg width="80" height="113" viewBox="0 0 80 113" fill="none" xmlns="http://www.w3.org/2000/svg">
<path d="M77.7947 50.454L38.6414 50.4414C37.5451 50.4414 36.6587 49.5517 36.6587 48.4584C36.6587 47.3651 37.5451 46.4785 38.6414 46.4785L77.7947 46.4879C78.8878 46.4879 79.7743 47.3776 79.7743 48.4709C79.7743 49.5643 78.8878 50.454 77.7947 50.454Z" fill="#13795F"/>
<path d="M23.8629 73.7838C23.1863 73.7838 22.5317 73.4423 22.1621 72.822L2.43196 40.0627C1.86815 39.1229 2.16572 37.9105 3.1054 37.3404C4.04821 36.7765 5.26352 37.0835 5.83046 38.0171L25.5574 70.7795C26.1212 71.7193 25.8237 72.9317 24.884 73.5018C24.5614 73.6898 24.2106 73.7838 23.8629 73.7838Z" fill="#13795F"/>
<path d="M59.2356 83.2915L20.0823 83.2821C18.9892 83.2821 18.0996 82.3955 18.0996 81.299C18.0996 80.2026 18.9892 79.3223 20.0823 79.3223H59.2356C60.3287 79.3254 61.2152 80.2151 61.2152 81.3084C61.2152 82.4018 60.3287 83.2884 59.2356 83.2884" fill="#13795F"/>
<path d="M68.5134 66.8699H29.3601C28.267 66.8699 27.3774 65.977 27.3774 64.8868C27.3774 63.7966 28.267 62.9038 29.3601 62.9038H68.5134C69.6066 62.9069 70.493 63.7966 70.493 64.89C70.493 65.9833 69.6066 66.8699 68.5134 66.8699Z" fill="#13795F"/>
<path d="M64.6859 1.92451C63.7306 1.38567 62.5184 1.724 61.9796 2.67636L55.2202 14.6404L54.3024 2.64504C54.2179 1.55797 53.2782 0.730917 52.1756 0.821767C51.0825 0.906352 50.265 1.85871 50.3464 2.94891L51.7058 20.7148L14.4945 86.5592L0.762695 110.86L4.21132 112.815L17.9463 88.5141L55.2547 22.4942C55.3737 22.372 55.4802 22.2374 55.5679 22.0776L65.4314 4.63434C65.9701 3.67884 65.6318 2.46646 64.6796 1.92762" fill="#805019"/>
</svg>
