<svg width="75" height="104" viewBox="0 0 75 104" fill="none" xmlns="http://www.w3.org/2000/svg">
<path d="M59.4902 15.2882C42.7608 8.39876 37.8584 0.703613 37.8584 0.703613C37.8584 0.703613 37.8486 0.716766 37.8354 0.733209C37.8223 0.716766 37.819 0.703613 37.819 0.703613C37.819 0.703613 32.91 8.39876 16.1806 15.2882C-1.0222 22.3717 -8.40376 59.2328 18.6105 63.8105C18.6105 63.8105 20.889 71.7161 37.8354 69.3253C54.7818 71.7161 57.0669 63.8105 57.0669 63.8105C84.0812 59.2361 76.6963 22.3717 59.4902 15.2882Z" fill="#A77651"/>
<path d="M69.8375 40.9559C69.2588 39.9627 67.983 39.624 66.9933 40.1929L39.9167 55.8661V46.9772L64.9811 32.4813C65.9806 31.9026 66.3226 30.6299 65.7439 29.6368C65.1685 28.637 63.896 28.3049 62.8998 28.8738L39.9167 42.1628V33.2739L58.0204 22.8887C59.0133 22.3198 59.3553 21.0405 58.7865 20.0441C58.2177 19.0543 56.9386 18.7024 55.9457 19.2779L39.9167 28.4726V12.2931C39.9167 11.1454 38.9927 10.2114 37.8386 10.2114C36.6845 10.2114 35.7573 11.1454 35.7573 12.2931V103.704H39.9167V60.6739L69.0779 43.8005C70.0709 43.2217 70.4129 41.9457 69.8408 40.9559" fill="#805019"/>
</svg>
