<svg width="240" height="252" viewBox="0 0 240 252" fill="none" xmlns="http://www.w3.org/2000/svg">
<path d="M201.086 218.438L180.011 218.432C179.421 218.432 178.944 217.954 178.944 217.366C178.944 216.779 179.421 216.302 180.011 216.302L201.086 216.307C201.674 216.307 202.151 216.785 202.151 217.373C202.151 217.96 201.674 218.438 201.086 218.438Z" fill="#13795F"/>
<path d="M172.057 230.974C171.693 230.974 171.34 230.79 171.142 230.457L160.522 212.855C160.218 212.35 160.379 211.698 160.884 211.392C161.392 211.089 162.046 211.254 162.351 211.756L172.969 229.36C173.273 229.864 173.112 230.516 172.607 230.822C172.433 230.923 172.244 230.974 172.057 230.974Z" fill="#13795F"/>
<path d="M191.097 236.083L170.022 236.078C169.434 236.078 168.955 235.601 168.955 235.012C168.955 234.423 169.434 233.95 170.022 233.95H191.097C191.685 233.952 192.162 234.43 192.162 235.017C192.162 235.605 191.685 236.081 191.097 236.081" fill="#13795F"/>
<path d="M196.09 227.259H175.016C174.428 227.259 173.949 226.779 173.949 226.193C173.949 225.607 174.428 225.128 175.016 225.128H196.09C196.679 225.129 197.156 225.607 197.156 226.195C197.156 226.782 196.679 227.259 196.09 227.259Z" fill="#13795F"/>
<path d="M194.03 192.362C193.516 192.073 192.863 192.255 192.573 192.766L188.935 199.195L188.441 192.75C188.396 192.165 187.89 191.721 187.296 191.77C186.708 191.815 186.268 192.327 186.312 192.913L187.043 202.459L167.014 237.838L159.623 250.896L161.48 251.946L168.872 238.889L188.954 203.415C189.018 203.349 189.075 203.277 189.122 203.191L194.431 193.818C194.721 193.305 194.539 192.654 194.027 192.364" fill="#805019"/>
<path d="M231.807 101.658C223.229 98.1312 220.715 94.1923 220.715 94.1923C220.715 94.1923 220.71 94.1991 220.703 94.2075C220.696 94.1991 220.695 94.1923 220.695 94.1923C220.695 94.1923 218.178 98.1312 209.599 101.658C200.779 105.284 196.994 124.152 210.845 126.495C210.845 126.495 212.014 130.541 220.703 129.318C229.392 130.541 230.564 126.495 230.564 126.495C244.416 124.153 240.629 105.284 231.807 101.658Z" fill="#A77651"/>
<path d="M237.112 114.796C236.816 114.287 236.162 114.114 235.654 114.405L221.77 122.428V117.878L234.622 110.458C235.135 110.162 235.31 109.51 235.013 109.002C234.718 108.49 234.066 108.32 233.555 108.611L221.77 115.414V110.864L231.053 105.548C231.562 105.257 231.738 104.602 231.446 104.092C231.154 103.585 230.499 103.405 229.989 103.7L221.77 108.406V100.124C221.77 99.5368 221.297 99.0587 220.705 99.0587C220.113 99.0587 219.638 99.5368 219.638 100.124V146.915H221.77V124.889L236.723 116.252C237.232 115.956 237.408 115.302 237.114 114.796" fill="#805019"/>
<path d="M1.27782 195.399C4.31757 199.511 13.0221 196.606 17.2825 194.927C17.2825 194.927 -2.46497 205.998 3.25374 214.263C7.29326 220.109 16.5929 214.721 18.2435 213.698C18.0715 215.593 17.8759 218.152 17.7512 221.079C17.3583 230.347 22.1633 237.617 26.8434 238.008V238.028C26.9092 238.028 26.9766 238.021 27.0441 238.02C27.1081 238.021 27.1739 238.028 27.238 238.028V238.008C31.9165 237.617 36.7231 230.347 36.3269 221.079C36.2021 218.076 35.9998 215.469 35.8262 213.563C36.5393 214.024 46.7426 220.465 51.0283 214.263C56.742 205.998 36.9996 194.927 36.9996 194.927C41.2566 196.606 49.9611 199.511 53.0042 195.399C56.044 191.283 53.1762 186.497 49.4873 183.949C47.9228 182.863 36.3387 175.526 36.3387 175.526C36.3387 175.526 41.0812 177.923 42.8869 173.179C45.7665 165.596 29.3757 158.2 27.388 157.333V157.249C27.388 157.249 27.3526 157.262 27.2885 157.292C27.2245 157.262 27.1924 157.249 27.1924 157.249H27.093C27.093 157.249 27.0576 157.262 26.9935 157.292C26.9328 157.262 26.894 157.249 26.894 157.249V157.333C24.9046 158.201 8.51389 165.596 11.3968 173.179C13.2008 177.923 17.9434 175.526 17.9434 175.526C17.9434 175.526 6.36262 182.863 4.79638 183.949C1.10585 186.497 -1.76193 191.283 1.27951 195.399" fill="#F7D98A"/>
<path d="M25.9263 140.118V178.606L5.17743 190.487C4.66491 190.778 4.48957 191.429 4.78124 191.943C4.97849 192.281 5.33928 192.476 5.71019 192.476C5.8889 192.476 6.07098 192.431 6.23789 192.337L25.9263 181.062V188.847L19.5939 192.519C19.0865 192.815 18.9111 193.466 19.2078 193.975C19.4051 194.316 19.7642 194.505 20.1334 194.505C20.3121 194.505 20.4976 194.456 20.6679 194.36L25.928 191.31V199.082L7.25451 209.801C6.74536 210.092 6.56665 210.747 6.86169 211.257C7.05894 211.599 7.41974 211.792 7.78896 211.792C7.96935 211.792 8.15144 211.743 8.32003 211.649L25.928 201.539V232.163C25.928 232.751 26.4051 233.229 26.9935 233.229C27.5819 233.229 28.059 232.751 28.059 232.163V140.118H25.928H25.9263Z" fill="#FCCF76"/>
<path d="M127.523 145.393C120.516 132.73 102.805 123.194 102.805 123.194C102.805 123.194 94.9302 141.522 97.4237 155.771C99.0726 165.19 106.934 175.14 119.697 171.035C132.456 166.924 132.163 153.773 127.523 145.393Z" fill="#88B29F"/>
<path d="M127.314 152.8C126.869 152.414 126.194 152.471 125.812 152.917L117.763 162.346L115.173 155.015L123.708 145.019C124.09 144.572 124.036 143.898 123.59 143.52C123.141 143.134 122.467 143.191 122.086 143.636L114.356 152.694L111.766 145.363L117.569 138.561C117.952 138.113 117.898 137.443 117.451 137.059C117.003 136.68 116.328 136.733 115.947 137.18L110.945 143.04L105.838 128.579C105.643 128.02 105.032 127.734 104.479 127.926C103.921 128.121 103.63 128.73 103.827 129.286L117.849 169.003L124.476 187.778L126.488 187.068L119.864 168.294L118.586 164.674L127.439 154.304C127.823 153.857 127.767 153.183 127.317 152.805" fill="#13795F"/>
<path d="M126.08 59.3869C126.08 59.3869 157.174 83.2089 179.646 59.3869C157.175 35.5683 126.08 59.3869 126.08 59.3869Z" fill="#88B29F"/>
<path d="M190.648 60.0636L190.636 57.9342L171.764 58.0453H171.762L167.404 58.0756L164.737 53.5559C164.44 53.0476 163.786 52.8809 163.279 53.1772C162.769 53.4752 162.599 54.1283 162.899 54.6333L164.939 58.0941L157.703 58.1446L153.962 51.802C153.664 51.2936 153.009 51.1286 152.502 51.4198C151.995 51.7195 151.823 52.3709 152.124 52.8809L155.237 58.1614L148.004 58.2119L145.296 53.6199C144.998 53.1132 144.34 52.9449 143.836 53.2429C143.329 53.5391 143.16 54.1939 143.459 54.704L145.539 58.2305L132.02 58.3247C131.431 58.3298 130.956 58.8095 130.961 59.3987C130.966 59.9828 131.44 60.4541 132.028 60.4541H132.035L171.779 60.178L190.65 60.0636H190.648Z" fill="#13795F"/>
<path d="M76.2784 25.7325C76.2784 25.7325 67.2366 25.1399 62.1198 26.8182C63.2207 26.3704 65.4681 25.2409 67.2855 22.8557C68.8973 20.7398 68.2111 18.0718 71.229 13.4007C71.229 13.4007 63.0859 9.90951 57.0957 15.7977C57.2424 15.2859 57.5256 11.9177 56.3219 9.25807C55.0523 6.44024 50.6082 0.334937 50.5323 0.434252C50.4548 0.333254 46.0089 6.43856 44.7394 9.25639C43.5357 11.916 43.8189 15.2859 43.969 15.796C37.9771 9.90783 29.8323 13.399 29.8323 13.399C32.8519 18.0701 32.1657 20.7365 33.7791 22.854C35.5949 25.2409 37.8456 26.3687 38.9432 26.8165C33.828 25.1383 24.7812 25.7308 24.7812 25.7308C24.7812 33.9907 34.236 37.8623 34.236 37.8623L29.5862 41.308C32.7035 45.3563 41.2866 45.8057 41.2866 45.8057V48.0512C46.8587 48.0512 49.7602 43.4256 50.5323 41.9779C51.2994 43.4256 54.2026 48.0512 59.773 48.0512V45.8057C59.773 45.8057 68.3595 45.3563 71.4768 41.308L66.827 37.8623C66.827 37.8623 76.2784 33.989 76.2784 25.7308" fill="#F47D29"/>
<path d="M72.3113 28.5099C72.0146 28.0032 71.3604 27.8299 70.853 28.1261L51.5995 39.3082V34.1018L59.95 29.3297C60.4591 29.0385 60.6378 28.3837 60.3428 27.8736C60.0511 27.367 59.3987 27.1852 58.8895 27.4814L51.5995 31.6459V26.4125L66.8354 17.4742C67.3428 17.1746 67.5148 16.5232 67.2147 16.0131C66.9163 15.5082 66.2621 15.3381 65.7547 15.6361L51.5995 23.9415V6.24668C51.5995 5.65752 51.1207 5.18115 50.5323 5.18115C49.9439 5.18115 49.4651 5.65752 49.4651 6.24668V58.183H51.5995V41.7726L71.9235 29.9676C72.4327 29.6714 72.6063 29.0183 72.3096 28.5116" fill="#DB5C1E"/>
</svg>
