<?xml version="1.0" encoding="utf-8"?>
<!-- Generator: Adobe Illustrator 25.4.1, SVG Export Plug-In . SVG Version: 6.00 Build 0)  -->
<svg version="1.1" xmlns="http://www.w3.org/2000/svg" xmlns:xlink="http://www.w3.org/1999/xlink" x="0px" y="0px"
	 viewBox="0 0 1080 851" style="enable-background:new 0 0 1080 851;" xml:space="preserve">
<style type="text/css">
	.st0{display:none;}
	.st1{display:inline;}
	.st2{fill:#FFFFFF;}
</style>
<g id="GUIDES">
</g>
<g id="ESS_x5F_White">
	<g id="_x5B_black-bg_x5D_" class="st0">
		<rect x="0" class="st1" width="1080" height="851"/>
	</g>
	<g id="_x5B_DESCRIPTION_x5D__00000111172692312316594580000009526838828424414370_">
		<path id="XMLID_00000016077110493829310590000014280394802952183712_" class="st2" d="M185.2,725.9c0.72-1.03,1.35-2.21,2.06-3.25
			c0.71-1.01,1.82-1.33,2.69-0.63c0.47,0.4,6.56,5.46,12.63,5.46c5.45,0,8.92-3.31,8.92-7.36c0-4.72-4.11-7.74-11.92-10.96
			c-8.05-3.39-14.37-7.59-14.37-16.74c0-6.16,4.74-14.61,17.29-14.61c7.91,0,13.82,4.11,14.61,4.66c0.63,0.4,1.27,1.5,0.47,2.7
			c-0.63,0.93-1.34,2.04-1.97,2.99c-0.63,1.01-1.67,1.49-2.76,0.78c-0.55-0.31-6.08-3.94-10.66-3.94c-6.63,0-8.93,4.17-8.93,7.1
			c0,4.51,3.48,7.27,10.03,9.95c9.15,3.71,16.97,8.05,16.97,17.69c0,8.2-7.34,14.91-17.6,14.91c-9.64,0-15.72-5.04-16.98-6.22
			C184.96,727.8,184.41,727.23,185.2,725.9z"/>
		<path id="XMLID_00000054259137681888794900000013876733901692092047_" class="st2" d="M242.25,680.11c0-0.8,0.72-1.5,1.51-1.5
			h5.29c0.86,0,1.5,0.69,1.5,1.5v32.59c0,7.91,5.05,14.06,13.1,14.06c8.14,0,13.26-6.07,13.26-13.89v-32.76c0-0.8,0.63-1.5,1.51-1.5
			h5.29c0.79,0,1.5,0.69,1.5,1.5v33.16c0,12-9.08,21.38-21.56,21.38c-12.4,0-21.4-9.38-21.4-21.38V680.11z"/>
		<path id="XMLID_00000122720747222303176520000002062113949131199389_" class="st2" d="M308.07,725.9c0.7-1.03,1.34-2.21,2.04-3.25
			c0.72-1.01,1.81-1.33,2.69-0.63c0.47,0.4,6.55,5.46,12.63,5.46c5.45,0,8.92-3.31,8.92-7.36c0-4.72-4.1-7.74-11.92-10.96
			c-8.05-3.39-14.36-7.59-14.36-16.74c0-6.16,4.73-14.61,17.29-14.61c7.88,0,13.81,4.11,14.6,4.66c0.63,0.4,1.27,1.5,0.47,2.7
			c-0.63,0.93-1.35,2.04-1.98,2.99c-0.63,1.01-1.64,1.49-2.76,0.78c-0.55-0.31-6.07-3.94-10.65-3.94c-6.64,0-8.93,4.17-8.93,7.1
			c0,4.51,3.48,7.27,10.03,9.95c9.16,3.71,16.98,8.05,16.98,17.69c0,8.2-7.35,14.91-17.61,14.91c-9.62,0-15.71-5.04-16.97-6.22
			C307.82,727.8,307.27,727.23,308.07,725.9z"/>
		<path id="XMLID_00000080194723905685009260000004465123950847916948_" class="st2" d="M373.39,686.03h-12.87
			c-0.86,0-1.5-0.72-1.5-1.5v-4.43c0-0.8,0.63-1.5,1.5-1.5h33.95c0.88,0,1.51,0.69,1.51,1.5v4.43c0,0.78-0.63,1.5-1.51,1.5H381.6
			v46.34c0,0.78-0.71,1.5-1.5,1.5h-5.21c-0.8,0-1.51-0.72-1.51-1.5V686.03z"/>
		<path id="XMLID_00000030456872575109731290000017779336426548071090_" class="st2" d="M405.9,731.82l24.23-53.13
			c0.24-0.49,0.95-0.89,1.35-0.89h0.79c0.39,0,1.11,0.4,1.34,0.89l24.08,53.13c0.49,1.03-0.15,2.05-1.34,2.05h-4.98
			c-0.95,0-1.51-0.47-1.81-1.18l-4.9-10.82h-25.82c-1.57,3.63-3.24,7.19-4.82,10.82c-0.23,0.55-0.86,1.18-1.81,1.18h-4.98
			C406.06,733.87,405.43,732.86,405.9,731.82z M441.67,715.08l-9.72-21.63h-0.38l-9.63,21.63H441.67z"/>
		<path id="XMLID_00000088091461925054721960000014689343643633673867_" class="st2" d="M477.39,680.11c0-0.8,0.71-1.5,1.5-1.5h5.22
			c0.78,0,1.5,0.69,1.5,1.5v52.26c0,0.78-0.72,1.5-1.5,1.5h-5.22c-0.79,0-1.5-0.72-1.5-1.5V680.11z"/>
		<path id="XMLID_00000009549260703832668220000016460852237466169776_" class="st2" d="M512.74,679.24c0-0.8,0.72-1.43,1.51-1.43
			h1.97l34.27,39.64h0.07v-37.34c0-0.8,0.63-1.5,1.51-1.5h5.05c0.79,0,1.5,0.69,1.5,1.5v53.13c0,0.8-0.71,1.41-1.5,1.41h-2.04
			l-34.28-40.73h-0.07v38.46c0,0.78-0.63,1.5-1.5,1.5h-4.98c-0.79,0-1.51-0.72-1.51-1.5V679.24z"/>
		<path id="XMLID_00000098910793041742948560000002643702344386403980_" class="st2" d="M578.3,731.82l24.25-53.13
			c0.23-0.49,0.95-0.89,1.34-0.89h0.79c0.4,0,1.11,0.4,1.35,0.89l24.08,53.13c0.47,1.03-0.16,2.05-1.35,2.05h-4.98
			c-0.95,0-1.5-0.47-1.81-1.18l-4.89-10.82h-25.83c-1.57,3.63-3.23,7.19-4.81,10.82c-0.24,0.55-0.86,1.18-1.81,1.18h-4.98
			C578.47,733.87,577.84,732.86,578.3,731.82z M614.08,715.08l-9.72-21.63h-0.4l-9.62,21.63H614.08z"/>
		<path id="XMLID_00000094618849732115025630000000892071049567045004_" class="st2" d="M649.79,680.11c0-0.8,0.63-1.5,1.51-1.5
			h17.69c9.55,0,16.41,6.3,16.41,14.61c0,6.07-4.49,10.41-8.2,12.54c4.19,1.73,9.87,5.61,9.87,12.86c0,8.85-7.26,15.24-17.2,15.24
			H651.3c-0.88,0-1.51-0.72-1.51-1.5V680.11z M669.78,726.6c4.81,0,8.52-3.71,8.52-8.6c0-4.81-4.57-8.29-9.71-8.29h-10.82v16.89
			H669.78z M668.52,702.6c5.05,0,8.13-3.71,8.13-8.45c0-4.81-3.08-8.12-8.13-8.12h-10.67v16.57H668.52z"/>
		<path id="XMLID_00000171688823492322557750000011498958615336198531_" class="st2" d="M710.71,680.11c0-0.8,0.71-1.5,1.51-1.5
			h5.21c0.79,0,1.5,0.69,1.5,1.5v52.26c0,0.78-0.7,1.5-1.5,1.5h-5.21c-0.8,0-1.51-0.72-1.51-1.5V680.11z"/>
		<path id="XMLID_00000084493764538948934940000014929752918959844532_" class="st2" d="M746.07,680.11c0-0.8,0.63-1.5,1.51-1.5
			h5.21c0.79,0,1.5,0.69,1.5,1.5v46.42h21.4c0.87,0,1.5,0.69,1.5,1.5v4.34c0,0.78-0.63,1.5-1.5,1.5h-28.1
			c-0.88,0-1.51-0.72-1.51-1.5V680.11z"/>
		<path id="XMLID_00000123439258589509123350000002730009018944862132_" class="st2" d="M797.28,680.11c0-0.8,0.71-1.5,1.51-1.5
			h5.21c0.79,0,1.5,0.69,1.5,1.5v52.26c0,0.78-0.71,1.5-1.5,1.5h-5.21c-0.8,0-1.51-0.72-1.51-1.5V680.11z"/>
		<path id="XMLID_00000013160256184731252050000012761367653619978888_" class="st2" d="M840.21,686.03h-12.88
			c-0.87,0-1.5-0.72-1.5-1.5v-4.43c0-0.8,0.63-1.5,1.5-1.5h33.95c0.87,0,1.51,0.69,1.51,1.5v4.43c0,0.78-0.63,1.5-1.51,1.5h-12.87
			v46.34c0,0.78-0.71,1.5-1.5,1.5h-5.21c-0.79,0-1.49-0.72-1.49-1.5V686.03z"/>
		<path id="XMLID_00000154400612694479115770000010823199291106029730_" class="st2" d="M896.47,707.26l-18.48-26.38
			c-0.63-1.01,0-2.27,1.27-2.27h5.84c0.63,0,1.03,0.38,1.26,0.69l14.3,20.13l14.29-20.13c0.23-0.32,0.7-0.69,1.25-0.69h5.92
			c1.27,0,1.9,1.27,1.27,2.27l-18.71,26.29v25.2c0,0.78-0.72,1.5-1.5,1.5h-5.21c-0.87,0-1.51-0.72-1.51-1.5V707.26z"/>
		<path id="XMLID_00000107581003741340846700000009104293166968462512_" class="st2" d="M185.2,820.58
			c0.72-1.03,1.35-2.21,2.06-3.23c0.71-1.03,1.82-1.35,2.69-0.63c0.47,0.38,6.56,5.44,12.63,5.44c5.45,0,8.92-3.31,8.92-7.34
			c0-4.74-4.11-7.74-11.92-10.98c-8.05-3.39-14.37-7.57-14.37-16.74c0-6.16,4.74-14.59,17.29-14.59c7.91,0,13.82,4.09,14.61,4.64
			c0.63,0.4,1.27,1.52,0.47,2.7c-0.63,0.95-1.34,2.05-1.97,2.99c-0.63,1.03-1.67,1.5-2.76,0.78c-0.55-0.29-6.08-3.94-10.66-3.94
			c-6.63,0-8.93,4.2-8.93,7.11c0,4.51,3.48,7.27,10.03,9.95c9.15,3.71,16.97,8.05,16.97,17.69c0,8.2-7.34,14.93-17.6,14.93
			c-9.64,0-15.72-5.06-16.98-6.24C184.96,822.48,184.41,821.93,185.2,820.58z"/>
		<path id="XMLID_00000166667576769840483120000006805658166812325548_" class="st2" d="M267.28,772.52
			c15.79,0,28.42,12.69,28.42,28.48c0,15.79-12.63,28.36-28.42,28.36c-15.8,0-28.35-12.56-28.35-28.36
			C238.94,785.21,251.48,772.52,267.28,772.52z M267.28,821.45c11.29,0,20.52-9.15,20.52-20.45c0-11.19-9.24-20.6-20.52-20.6
			c-11.22,0-20.45,9.4-20.45,20.6C246.83,812.3,256.07,821.45,267.28,821.45z"/>
		<path id="XMLID_00000074430561418209792690000012173759809587579307_" class="st2" d="M343.26,772.52
			c7.98,0,13.74,2.68,19.11,7.33c0.71,0.63,0.71,1.58,0.06,2.21l-3.47,3.54c-0.55,0.72-1.25,0.72-1.97,0
			c-3.71-3.23-8.76-5.29-13.66-5.29c-11.28,0-19.82,9.49-19.82,20.53c0,11.05,8.6,20.45,19.9,20.45c5.77,0,9.78-2.3,13.58-5.21
			c0.72-0.57,1.42-0.49,1.9-0.09l3.63,3.54c0.63,0.57,0.49,1.58-0.08,2.15c-5.36,5.21-12.14,7.65-19.18,7.65
			c-15.79,0-28.5-12.56-28.5-28.36C314.76,785.21,327.47,772.52,343.26,772.52z"/>
		<path id="XMLID_00000075854279659149606950000012243666892532767130_" class="st2" d="M385.54,774.79c0-0.78,0.72-1.5,1.51-1.5
			h5.21c0.79,0,1.5,0.72,1.5,1.5v52.27c0,0.8-0.71,1.5-1.5,1.5h-5.21c-0.79,0-1.51-0.7-1.51-1.5V774.79z"/>
		<path id="XMLID_00000179645503799510097000000017895236247546376097_" class="st2" d="M420.9,774.79c0-0.78,0.63-1.5,1.5-1.5
			h31.58c0.86,0,1.5,0.72,1.5,1.5v4.43c0,0.78-0.63,1.5-1.5,1.5h-24.95v16.11h21.08c0.79,0,1.5,0.72,1.5,1.5v4.43
			c0,0.87-0.71,1.5-1.5,1.5h-21.08v16.97h24.95c0.86,0,1.5,0.72,1.5,1.5v4.35c0,0.8-0.63,1.5-1.5,1.5H422.4c-0.86,0-1.5-0.7-1.5-1.5
			V774.79z"/>
		<path id="XMLID_00000105388022433744958300000004569680242716957614_" class="st2" d="M486.78,780.72h-12.87
			c-0.86,0-1.5-0.72-1.5-1.5v-4.43c0-0.78,0.63-1.5,1.5-1.5h33.95c0.86,0,1.5,0.72,1.5,1.5v4.43c0,0.78-0.63,1.5-1.5,1.5h-12.87
			v46.34c0,0.8-0.71,1.5-1.5,1.5h-5.22c-0.78,0-1.5-0.7-1.5-1.5V780.72z"/>
		<path id="XMLID_00000114066805044451467160000014853314528808534970_" class="st2" d="M543.05,801.95l-18.48-26.38
			c-0.63-1.01,0-2.28,1.27-2.28h5.84c0.63,0,1.02,0.4,1.26,0.72l14.29,20.14l14.28-20.14c0.24-0.31,0.72-0.72,1.27-0.72h5.92
			c1.27,0,1.9,1.27,1.27,2.28l-18.72,26.31v25.17c0,0.8-0.71,1.5-1.5,1.5h-5.21c-0.86,0-1.5-0.7-1.5-1.5V801.95z"/>
	</g>
	<g id="_x5B_E_M_B_A_R_K_x5D__00000162337930459665491390000010135940811750837164_">
		<path id="XMLID_00000169523638857400421530000011656545884294746253_" class="st2" d="M931.85,379.45
			c-0.21-2.82,1.79-5.35,4.83-5.57l19.07-1.35c2.82-0.2,5.37,2.01,5.57,4.83l4.14,58.52l50.27-65.41c0.78-1.15,2.01-2.32,3.96-2.46
			l21.67-1.53c4.12-0.3,6.6,4.11,4.02,7.55l-52.08,67.71l65.82,68.32c2.36,2.67,0.97,7.55-3.37,7.86l-23.62,1.67
			c-2.17,0.15-3.54-0.62-4.02-1.24l-61.49-65.8l4.67,66.11c0.2,2.82-2.02,5.37-4.84,5.56l-19.07,1.35
			c-3.03,0.21-5.36-2.02-5.57-4.84L931.85,379.45z"/>
		<path id="XMLID_00000043434023010669688980000012119985193087334806_" class="st2" d="M754.96,390.87
			c-0.15-2.17,1.45-4.24,3.83-4.41l61.99-4.38c26.01-1.83,48.72,17.47,50.53,43.26c1.41,19.94-10.66,37.13-28.98,46.04l33.57,52.96
			c1.72,2.71,0.45,6.29-3.24,6.55l-22.75,1.6c-1.96,0.13-3.11-0.87-3.61-1.71l-32.88-55.4l-24.05,1.7l3.89,55.27
			c0.15,2.17-1.65,4.25-3.83,4.41l-19.93,1.4c-2.38,0.17-4.26-1.66-4.42-3.82L754.96,390.87z M823.27,451.39
			c11.49-0.81,20.76-11.48,19.9-23.62c-0.8-11.49-11.46-20.32-22.94-19.51l-35.33,2.49l3.05,43.13L823.27,451.39z"/>
		<path id="XMLID_00000103987264430212035530000010106475800659880630_" class="st2" d="M567.56,546.77l57.1-150.62
			c0.55-1.34,1.57-2.51,3.52-2.64l2.17-0.15c2.18-0.15,3.11,0.87,3.86,2.13l77.04,141.15c1.5,2.72-0.03,5.67-3.28,5.9l-18.86,1.33
			c-3.25,0.23-4.86-0.97-6.59-3.89l-12.27-22.65l-64.81,4.57l-8.97,24.16c-0.72,2.22-2.51,4.53-5.98,4.78l-18.85,1.33
			C568.39,552.37,566.46,549.68,567.56,546.77z M657.92,494l-25.03-46.15l-0.65,0.04l-17.88,49.18L657.92,494z"/>
		<path id="XMLID_00000139255580097986808310000002782987823507233448_" class="st2" d="M410.81,415.09
			c-0.15-2.17,1.45-4.24,3.83-4.41l49.63-3.51c25.8-1.82,46.96,14.11,48.56,36.87c1.18,16.69-11.55,30.66-21.41,36.14
			c11.75,2.88,29.26,13.4,30.67,33.34c1.72,24.28-17.85,43.3-44.29,45.17l-52.45,3.7c-2.38,0.17-4.26-1.66-4.42-3.83L410.81,415.09z
			 M466.17,471.08c11.05-0.78,18.03-9.99,17.26-20.82c-0.76-10.83-8.88-17.89-19.93-17.11l-23.19,1.64l2.67,37.93L466.17,471.08z
			 M473.61,533.29c10.84-0.77,18.91-9.83,18.11-21.1c-0.77-10.84-12.17-18.09-23.44-17.3l-23.62,1.67l2.72,38.58L473.61,533.29z"/>
		<path id="XMLID_00000014603498838984390520000010532632987235121850_" class="st2" d="M200.34,426.93
			c0.09-1.75,1.28-3.37,3.67-3.53l3.47-0.25c1.73-0.12,3.09,0.65,3.84,1.91l54.9,98.93c0.44-0.03,0.44-0.03,0.65-0.04l40.46-105.66
			c0.56-1.35,1.58-2.29,3.54-2.43l3.46-0.25c2.38-0.17,3.8,1.26,4.14,2.98l35.86,143.84c0.86,2.98-0.73,5.06-3.55,5.26l-19.72,1.39
			c-1.96,0.14-3.81-1.48-4.35-2.96l-18.58-81.24c-0.22,0.01-0.65,0.04-0.65,0.04l-31.92,87.86c-0.34,1.33-1.57,2.51-3.51,2.65
			l-3.91,0.28c-1.95,0.14-3.1-0.87-3.85-2.13l-44.38-82.47c0,0-0.42,0.03-0.64,0.05l-6.78,83.03c-0.11,1.53-1.72,3.39-3.67,3.53
			l-19.51,1.38c-2.82,0.2-4.69-1.63-4.47-4.7L200.34,426.93z"/>
		<path id="XMLID_00000036946546193633246440000013185058248415234214_" class="st2" d="M18.54,442.88
			c-0.15-2.17,1.45-4.24,3.83-4.41l88.21-6.22c2.39-0.17,4.26,1.66,4.42,3.82l1.25,17.77c0.15,2.17-1.45,4.24-3.83,4.41l-64.15,4.53
			l2.51,35.55l53.54-3.78c2.17-0.15,4.25,1.66,4.41,3.83l1.27,17.99c0.16,2.38-1.66,4.25-3.83,4.41l-53.54,3.78l2.68,37.92
			l64.15-4.53c2.38-0.17,4.25,1.66,4.41,3.83l1.26,17.77c0.15,2.16-1.45,4.24-3.83,4.41l-88.21,6.23c-2.38,0.17-4.26-1.66-4.42-3.83
			L18.54,442.88z"/>
	</g>
	<g id="_x5B_LEAF_x5D__00000140724230553426127200000006484742815784587162_">
		<path id="XMLID_00000027599848156950573070000005715986879086517403_" class="st2" d="M574.63,133.2
			c-2.44-4.45-5.16-8.82-8.08-13.12l-53.14,61.51l13.32,38.63l56.78-66.43C581.15,146.55,578.14,139.6,574.63,133.2z"/>
		<path id="XMLID_00000003814402151003338790000006037645359054987439_" class="st2" d="M537.01,85.1l-40.73,46.85l13.34,38.65
			l50.96-58.84C553.45,102.37,545.43,93.44,537.01,85.1z"/>
		<path id="XMLID_00000054231781797487451170000015630026977910480019_" class="st2" d="M458.11,67.57
			c-1.35-3.93,0.75-8.23,4.67-9.59c3.94-1.35,8.24,0.73,9.58,4.67l20.14,58.33l37.31-42.82c-38.24-35.6-80.98-58.81-80.98-58.81
			s-40.47,93.56-27.97,166.43c7.95,46.24,45.12,95.05,105.79,80.46L458.11,67.57z"/>
		<path id="XMLID_00000125581684840390447200000005776875484861248133_" class="st2" d="M530.54,231.24l10.5,30.46
			c44.49-17.69,53.85-59.12,45.7-96.14L530.54,231.24z"/>
		<path id="XMLID_00000043434734451525906130000009194970493513459628_" class="st2" d="M534.3,264.13c-2.6,0.83-5.14,1.5-7.65,2.11
			l28.2,81.91l14.22-4.89l-28.07-81.53C538.84,262.58,536.62,263.39,534.3,264.13z"/>
	</g>
</g>
<g id="ESS_x5F_Black" class="st0">
	<g id="_x5B_DESCRIPTION_x5D_" class="st1">
		<path id="XMLID_89_" d="M184.78,725.55c0.72-1.03,1.35-2.21,2.06-3.25c0.71-1.01,1.82-1.33,2.69-0.63
			c0.47,0.4,6.56,5.46,12.63,5.46c5.45,0,8.92-3.31,8.92-7.36c0-4.72-4.11-7.74-11.92-10.96c-8.05-3.39-14.37-7.59-14.37-16.74
			c0-6.16,4.74-14.61,17.29-14.61c7.91,0,13.82,4.11,14.61,4.66c0.63,0.4,1.27,1.5,0.47,2.7c-0.63,0.93-1.34,2.04-1.97,2.99
			c-0.63,1.01-1.67,1.49-2.76,0.78c-0.55-0.31-6.08-3.94-10.66-3.94c-6.63,0-8.93,4.17-8.93,7.1c0,4.51,3.48,7.27,10.03,9.95
			c9.15,3.71,16.97,8.05,16.97,17.69c0,8.2-7.34,14.91-17.6,14.91c-9.64,0-15.72-5.04-16.98-6.22
			C184.55,727.45,183.99,726.88,184.78,725.55z"/>
		<path id="XMLID_87_" d="M241.83,679.76c0-0.8,0.72-1.5,1.51-1.5h5.29c0.86,0,1.5,0.69,1.5,1.5v32.59c0,7.91,5.05,14.06,13.1,14.06
			c8.14,0,13.26-6.07,13.26-13.89v-32.76c0-0.8,0.63-1.5,1.51-1.5h5.29c0.79,0,1.5,0.69,1.5,1.5v33.16c0,12-9.08,21.38-21.56,21.38
			c-12.4,0-21.4-9.38-21.4-21.38V679.76z"/>
		<path id="XMLID_85_" d="M307.65,725.55c0.7-1.03,1.34-2.21,2.04-3.25c0.72-1.01,1.81-1.33,2.69-0.63
			c0.47,0.4,6.55,5.46,12.63,5.46c5.45,0,8.92-3.31,8.92-7.36c0-4.72-4.1-7.74-11.92-10.96c-8.05-3.39-14.36-7.59-14.36-16.74
			c0-6.16,4.73-14.61,17.29-14.61c7.88,0,13.81,4.11,14.6,4.66c0.63,0.4,1.27,1.5,0.47,2.7c-0.63,0.93-1.35,2.04-1.98,2.99
			c-0.63,1.01-1.64,1.49-2.76,0.78c-0.55-0.31-6.07-3.94-10.65-3.94c-6.64,0-8.93,4.17-8.93,7.1c0,4.51,3.48,7.27,10.03,9.95
			c9.16,3.71,16.98,8.05,16.98,17.69c0,8.2-7.35,14.91-17.61,14.91c-9.62,0-15.71-5.04-16.97-6.22
			C307.41,727.45,306.85,726.88,307.65,725.55z"/>
		<path id="XMLID_83_" d="M372.98,685.68h-12.87c-0.86,0-1.5-0.72-1.5-1.5v-4.43c0-0.8,0.63-1.5,1.5-1.5h33.95
			c0.88,0,1.51,0.69,1.51,1.5v4.43c0,0.78-0.63,1.5-1.51,1.5h-12.87v46.34c0,0.78-0.71,1.5-1.5,1.5h-5.21c-0.8,0-1.51-0.72-1.51-1.5
			V685.68z"/>
		<path id="XMLID_80_" d="M405.49,731.47l24.23-53.13c0.24-0.49,0.95-0.89,1.35-0.89h0.79c0.39,0,1.11,0.4,1.34,0.89l24.08,53.13
			c0.49,1.03-0.15,2.05-1.34,2.05h-4.98c-0.95,0-1.51-0.47-1.81-1.18l-4.9-10.82h-25.82c-1.57,3.63-3.24,7.19-4.82,10.82
			c-0.23,0.55-0.86,1.18-1.81,1.18h-4.98C405.64,733.52,405.01,732.51,405.49,731.47z M441.25,714.73l-9.72-21.63h-0.38l-9.63,21.63
			H441.25z"/>
		<path id="XMLID_78_" d="M476.98,679.76c0-0.8,0.71-1.5,1.5-1.5h5.22c0.78,0,1.5,0.69,1.5,1.5v52.26c0,0.78-0.72,1.5-1.5,1.5h-5.22
			c-0.79,0-1.5-0.72-1.5-1.5V679.76z"/>
		<path id="XMLID_76_" d="M512.32,678.89c0-0.8,0.72-1.43,1.51-1.43h1.97l34.27,39.64h0.07v-37.34c0-0.8,0.63-1.5,1.51-1.5h5.05
			c0.79,0,1.5,0.69,1.5,1.5v53.13c0,0.8-0.71,1.41-1.5,1.41h-2.04l-34.28-40.73h-0.07v38.46c0,0.78-0.63,1.5-1.5,1.5h-4.98
			c-0.79,0-1.51-0.72-1.51-1.5V678.89z"/>
		<path id="XMLID_73_" d="M577.89,731.47l24.25-53.13c0.23-0.49,0.95-0.89,1.34-0.89h0.79c0.4,0,1.11,0.4,1.35,0.89l24.08,53.13
			c0.47,1.03-0.16,2.05-1.35,2.05h-4.98c-0.95,0-1.5-0.47-1.81-1.18l-4.89-10.82h-25.83c-1.57,3.63-3.23,7.19-4.81,10.82
			c-0.24,0.55-0.86,1.18-1.81,1.18h-4.98C578.06,733.52,577.43,732.51,577.89,731.47z M613.67,714.73l-9.72-21.63h-0.4l-9.62,21.63
			H613.67z"/>
		<path id="XMLID_69_" d="M649.38,679.76c0-0.8,0.63-1.5,1.51-1.5h17.69c9.55,0,16.41,6.3,16.41,14.61c0,6.07-4.49,10.41-8.2,12.54
			c4.19,1.73,9.87,5.61,9.87,12.86c0,8.85-7.26,15.24-17.2,15.24h-18.56c-0.88,0-1.51-0.72-1.51-1.5V679.76z M669.37,726.24
			c4.81,0,8.52-3.71,8.52-8.6c0-4.81-4.57-8.29-9.71-8.29h-10.82v16.89H669.37z M668.1,702.25c5.05,0,8.13-3.71,8.13-8.45
			c0-4.81-3.08-8.12-8.13-8.12h-10.67v16.57H668.1z"/>
		<path id="XMLID_67_" d="M710.3,679.76c0-0.8,0.71-1.5,1.51-1.5h5.21c0.79,0,1.5,0.69,1.5,1.5v52.26c0,0.78-0.7,1.5-1.5,1.5h-5.21
			c-0.8,0-1.51-0.72-1.51-1.5V679.76z"/>
		<path id="XMLID_65_" d="M745.65,679.76c0-0.8,0.63-1.5,1.51-1.5h5.21c0.79,0,1.5,0.69,1.5,1.5v46.42h21.4c0.87,0,1.5,0.69,1.5,1.5
			v4.34c0,0.78-0.63,1.5-1.5,1.5h-28.1c-0.88,0-1.51-0.72-1.51-1.5V679.76z"/>
		<path id="XMLID_63_" d="M796.86,679.76c0-0.8,0.71-1.5,1.51-1.5h5.21c0.79,0,1.5,0.69,1.5,1.5v52.26c0,0.78-0.71,1.5-1.5,1.5
			h-5.21c-0.8,0-1.51-0.72-1.51-1.5V679.76z"/>
		<path id="XMLID_61_" d="M839.8,685.68h-12.88c-0.87,0-1.5-0.72-1.5-1.5v-4.43c0-0.8,0.63-1.5,1.5-1.5h33.95
			c0.87,0,1.51,0.69,1.51,1.5v4.43c0,0.78-0.63,1.5-1.51,1.5H848v46.34c0,0.78-0.71,1.5-1.5,1.5h-5.21c-0.79,0-1.49-0.72-1.49-1.5
			V685.68z"/>
		<path id="XMLID_59_" d="M896.06,706.91l-18.48-26.38c-0.63-1.01,0-2.27,1.27-2.27h5.84c0.63,0,1.03,0.38,1.26,0.69l14.3,20.13
			l14.29-20.13c0.23-0.32,0.7-0.69,1.25-0.69h5.93c1.27,0,1.9,1.27,1.27,2.27l-18.71,26.29v25.2c0,0.78-0.72,1.5-1.5,1.5h-5.21
			c-0.87,0-1.51-0.72-1.51-1.5V706.91z"/>
		<path id="XMLID_57_" d="M184.78,820.23c0.72-1.03,1.35-2.21,2.06-3.23c0.71-1.03,1.82-1.35,2.69-0.63
			c0.47,0.38,6.56,5.44,12.63,5.44c5.45,0,8.92-3.31,8.92-7.34c0-4.74-4.11-7.74-11.92-10.98c-8.05-3.39-14.37-7.57-14.37-16.74
			c0-6.16,4.74-14.59,17.29-14.59c7.91,0,13.82,4.09,14.61,4.64c0.63,0.4,1.27,1.52,0.47,2.7c-0.63,0.95-1.34,2.05-1.97,2.99
			c-0.63,1.03-1.67,1.5-2.76,0.78c-0.55-0.29-6.08-3.94-10.66-3.94c-6.63,0-8.93,4.2-8.93,7.11c0,4.51,3.48,7.27,10.03,9.95
			c9.15,3.71,16.97,8.05,16.97,17.69c0,8.2-7.34,14.93-17.6,14.93c-9.64,0-15.72-5.06-16.98-6.24
			C184.55,822.13,183.99,821.58,184.78,820.23z"/>
		<path id="XMLID_54_" d="M266.87,772.16c15.79,0,28.42,12.69,28.42,28.48c0,15.79-12.63,28.36-28.42,28.36
			c-15.8,0-28.35-12.56-28.35-28.36C238.52,784.85,251.07,772.16,266.87,772.16z M266.87,821.09c11.29,0,20.52-9.15,20.52-20.45
			c0-11.19-9.24-20.6-20.52-20.6c-11.22,0-20.45,9.4-20.45,20.6C246.42,811.94,255.65,821.09,266.87,821.09z"/>
		<path id="XMLID_52_" d="M342.85,772.16c7.98,0,13.74,2.68,19.11,7.33c0.71,0.63,0.71,1.58,0.06,2.21l-3.47,3.54
			c-0.55,0.72-1.25,0.72-1.97,0c-3.71-3.23-8.76-5.29-13.66-5.29c-11.28,0-19.82,9.49-19.82,20.53c0,11.05,8.6,20.45,19.9,20.45
			c5.77,0,9.78-2.3,13.58-5.21c0.72-0.57,1.42-0.49,1.9-0.09l3.63,3.54c0.63,0.57,0.49,1.58-0.08,2.15
			c-5.36,5.21-12.14,7.65-19.18,7.65c-15.79,0-28.5-12.56-28.5-28.36C314.35,784.85,327.06,772.16,342.85,772.16z"/>
		<path id="XMLID_50_" d="M385.13,774.44c0-0.78,0.72-1.5,1.51-1.5h5.21c0.79,0,1.5,0.72,1.5,1.5v52.27c0,0.8-0.71,1.5-1.5,1.5
			h-5.21c-0.79,0-1.51-0.7-1.51-1.5V774.44z"/>
		<path id="XMLID_48_" d="M420.49,774.44c0-0.78,0.63-1.5,1.5-1.5h31.58c0.86,0,1.5,0.72,1.5,1.5v4.43c0,0.78-0.63,1.5-1.5,1.5
			h-24.95v16.11h21.08c0.79,0,1.5,0.72,1.5,1.5v4.43c0,0.87-0.71,1.5-1.5,1.5h-21.08v16.97h24.95c0.86,0,1.5,0.72,1.5,1.5v4.35
			c0,0.8-0.63,1.5-1.5,1.5h-31.58c-0.86,0-1.5-0.7-1.5-1.5V774.44z"/>
		<path id="XMLID_46_" d="M486.37,780.36H473.5c-0.86,0-1.5-0.72-1.5-1.5v-4.43c0-0.78,0.63-1.5,1.5-1.5h33.95
			c0.86,0,1.5,0.72,1.5,1.5v4.43c0,0.78-0.63,1.5-1.5,1.5h-12.87v46.34c0,0.8-0.71,1.5-1.5,1.5h-5.22c-0.78,0-1.5-0.7-1.5-1.5
			V780.36z"/>
		<path id="XMLID_44_" d="M542.64,801.59l-18.48-26.38c-0.63-1.01,0-2.28,1.27-2.28h5.84c0.63,0,1.02,0.4,1.26,0.72l14.29,20.14
			l14.28-20.14c0.24-0.31,0.72-0.72,1.27-0.72h5.92c1.27,0,1.9,1.27,1.27,2.28l-18.72,26.31v25.17c0,0.8-0.71,1.5-1.5,1.5h-5.21
			c-0.86,0-1.5-0.7-1.5-1.5V801.59z"/>
	</g>
	<g id="_x5B_E_M_B_A_R_K_x5D_" class="st1">
		<path id="XMLID_96_" d="M931.43,379.1c-0.21-2.82,1.79-5.35,4.83-5.57l19.07-1.35c2.82-0.2,5.37,2.01,5.57,4.83l4.14,58.52
			l50.27-65.41c0.78-1.15,2.01-2.32,3.96-2.46l21.67-1.53c4.12-0.3,6.6,4.11,4.02,7.55l-52.08,67.71l65.82,68.32
			c2.36,2.67,0.97,7.55-3.37,7.86l-23.62,1.67c-2.17,0.15-3.54-0.62-4.02-1.24l-61.49-65.8l4.67,66.11c0.2,2.82-2.02,5.37-4.84,5.56
			l-19.07,1.35c-3.03,0.21-5.36-2.02-5.57-4.84L931.43,379.1z"/>
		<path id="XMLID_98_" d="M754.55,390.51c-0.15-2.17,1.45-4.24,3.83-4.41l61.99-4.38c26.01-1.83,48.72,17.47,50.53,43.26
			c1.41,19.94-10.66,37.13-28.98,46.04l33.57,52.96c1.72,2.71,0.45,6.29-3.24,6.55l-22.75,1.6c-1.96,0.13-3.11-0.87-3.61-1.71
			l-32.88-55.4l-24.05,1.7l3.89,55.27c0.15,2.17-1.65,4.25-3.83,4.41l-19.93,1.4c-2.38,0.17-4.26-1.66-4.42-3.82L754.55,390.51z
			 M822.86,451.03c11.49-0.81,20.76-11.48,19.9-23.62c-0.8-11.49-11.46-20.32-22.94-19.51l-35.33,2.49l3.05,43.13L822.86,451.03z"/>
		<path id="XMLID_101_" d="M567.15,546.42l57.1-150.62c0.55-1.34,1.57-2.51,3.52-2.64l2.17-0.15c2.17-0.15,3.11,0.87,3.86,2.13
			l77.04,141.15c1.5,2.72-0.03,5.67-3.28,5.9l-18.86,1.33c-3.25,0.23-4.86-0.97-6.59-3.89l-12.27-22.65l-64.81,4.57l-8.97,24.16
			c-0.72,2.22-2.51,4.53-5.98,4.78l-18.85,1.33C567.98,552.02,566.04,549.33,567.15,546.42z M657.51,493.64l-25.03-46.15l-0.65,0.04
			l-17.88,49.18L657.51,493.64z"/>
		<path id="XMLID_104_" d="M410.4,414.74c-0.15-2.17,1.45-4.24,3.83-4.41l49.63-3.51c25.8-1.82,46.96,14.11,48.56,36.87
			c1.18,16.69-11.55,30.66-21.41,36.14c11.75,2.88,29.26,13.4,30.67,33.34c1.72,24.28-17.85,43.3-44.29,45.17l-52.45,3.7
			c-2.38,0.17-4.26-1.66-4.42-3.83L410.4,414.74z M465.76,470.73c11.05-0.78,18.03-9.99,17.26-20.82
			c-0.76-10.83-8.88-17.89-19.93-17.11l-23.19,1.64l2.67,37.93L465.76,470.73z M473.2,532.93c10.84-0.77,18.91-9.83,18.11-21.1
			c-0.77-10.84-12.17-18.09-23.44-17.3l-23.62,1.67l2.72,38.58L473.2,532.93z"/>
		<path id="XMLID_108_" d="M199.92,426.57c0.09-1.75,1.28-3.37,3.67-3.53l3.47-0.25c1.73-0.12,3.09,0.65,3.84,1.91l54.9,98.93
			c0.44-0.03,0.44-0.03,0.65-0.04l40.46-105.66c0.56-1.35,1.58-2.29,3.54-2.43l3.46-0.25c2.38-0.17,3.8,1.26,4.14,2.98l35.86,143.84
			c0.86,2.98-0.73,5.06-3.55,5.26l-19.72,1.39c-1.96,0.14-3.81-1.48-4.35-2.96l-18.58-81.24c-0.22,0.01-0.65,0.04-0.65,0.04
			l-31.92,87.86c-0.34,1.33-1.57,2.51-3.51,2.65l-3.91,0.28c-1.95,0.14-3.1-0.87-3.85-2.13l-44.38-82.47c0,0-0.42,0.03-0.64,0.05
			l-6.78,83.03c-0.11,1.53-1.72,3.39-3.67,3.53l-19.51,1.38c-2.82,0.2-4.69-1.63-4.47-4.7L199.92,426.57z"/>
		<path id="XMLID_110_" d="M18.12,442.53c-0.15-2.17,1.45-4.24,3.83-4.41l88.21-6.22c2.39-0.17,4.26,1.66,4.42,3.82l1.25,17.77
			c0.15,2.17-1.45,4.24-3.83,4.41l-64.15,4.53l2.51,35.55l53.54-3.78c2.17-0.15,4.25,1.66,4.41,3.83l1.27,17.99
			c0.16,2.38-1.66,4.25-3.83,4.41l-53.54,3.78l2.68,37.92l64.15-4.53c2.38-0.17,4.25,1.66,4.41,3.83l1.26,17.77
			c0.15,2.16-1.45,4.24-3.83,4.41l-88.21,6.23c-2.38,0.17-4.26-1.66-4.42-3.83L18.12,442.53z"/>
	</g>
	<g id="_x5B_LEAF_x5D_" class="st1">
		<path id="XMLID_31_" d="M574.22,132.85c-2.44-4.45-5.16-8.82-8.08-13.12L513,181.24l13.32,38.63l56.78-66.43
			C580.74,146.19,577.73,139.25,574.22,132.85z"/>
		<path id="XMLID_30_" d="M536.6,84.75l-40.73,46.85l13.34,38.65l50.96-58.84C553.04,102.01,545.02,93.09,536.6,84.75z"/>
		<path id="XMLID_29_" d="M457.69,67.22c-1.35-3.93,0.75-8.23,4.67-9.59c3.94-1.35,8.24,0.73,9.58,4.67l20.14,58.33l37.31-42.82
			C491.15,42.2,448.41,19,448.41,19s-40.47,93.56-27.97,166.43c7.95,46.24,45.12,95.05,105.79,80.46L457.69,67.22z"/>
		<path id="XMLID_28_" d="M530.13,230.89l10.5,30.46c44.49-17.69,53.85-59.12,45.7-96.14L530.13,230.89z"/>
		<path id="XMLID_27_" d="M533.89,263.78c-2.6,0.83-5.14,1.5-7.65,2.11l28.2,81.91l14.22-4.89l-28.07-81.53
			C538.42,262.23,536.21,263.04,533.89,263.78z"/>
	</g>
</g>
</svg>
