<svg width="139" height="47" viewBox="0 0 139 47" fill="none" xmlns="http://www.w3.org/2000/svg">
<path d="M0.762695 23.5087C0.762695 23.5087 67.3046 74.577 115.395 23.5087C67.3082 -27.5523 0.762695 23.5087 0.762695 23.5087Z" fill="#88B29F"/>
<path d="M138.941 24.9593L138.916 20.3944L98.5278 20.6326H98.5242L89.1976 20.6976L83.4898 11.0086C82.8548 9.9188 81.4549 9.56156 80.3689 10.1967C79.2793 10.8354 78.9149 12.2355 79.5571 13.3181L83.9228 20.7372L68.4373 20.8455L60.4312 7.24848C59.7926 6.15869 58.3927 5.80505 57.3067 6.42933C56.2207 7.07165 55.8527 8.46816 56.4985 9.56156L63.1589 20.8816L47.6806 20.9898L41.8862 11.1457C41.2476 10.0595 39.8405 9.69868 38.7617 10.3374C37.6757 10.9725 37.3149 12.3762 37.9535 13.4696L42.4058 21.0295L13.4734 21.2316C12.2142 21.2424 11.1968 22.2709 11.2076 23.5339C11.2184 24.786 12.2323 25.7964 13.4915 25.7964H13.5059L98.5603 25.2046L138.944 24.9593H138.941Z" fill="#13795F"/>
</svg>
