<svg width="68" height="112" viewBox="0 0 68 112" fill="none" xmlns="http://www.w3.org/2000/svg">
<path d="M54.7989 36.1003C40.1263 18.5945 9.84226 9.17006 9.84226 9.17006C9.84226 9.17006 3.20859 39.9506 11.3795 61.2775C16.7818 75.376 31.9551 88.4186 50.4549 78.1997C68.948 67.974 64.5128 47.6829 54.7989 36.1003Z" fill="#88B29F"/>
<path d="M56.7176 50.6402C55.9123 50.1774 54.8865 50.4699 54.4295 51.2768L44.833 68.319L38.6078 57.7419L48.7837 39.6739C49.2402 38.8644 48.9529 37.8373 48.1471 37.3854C47.3367 36.9236 46.3108 37.2161 45.8559 38.0199L36.6402 54.3919L30.4151 43.8148L37.3326 31.5204C37.7891 30.7109 37.5028 29.6891 36.6955 29.2293C35.8871 28.778 34.8597 29.0626 34.4058 29.8716L28.4417 40.4633L16.1642 19.5975C15.6925 18.7906 14.6617 18.5316 13.8644 18.9961C13.0603 19.4673 12.7935 20.4997 13.2668 21.3009L46.9814 78.6094L62.9175 105.701L65.8138 103.992L49.8835 76.9024L46.8105 71.6778L57.3661 52.9345C57.8252 52.1245 57.5353 51.0979 56.7243 50.647" fill="#13795F"/>
</svg>
