<svg width="81" height="88" viewBox="0 0 81 88" fill="none" xmlns="http://www.w3.org/2000/svg">
<path d="M80.7627 40.0196C80.7627 40.0196 66.7165 39.0988 58.7676 41.7069C60.4779 41.0111 63.9691 39.2558 66.7925 35.5491C69.2963 32.2609 68.2304 28.1147 72.9185 20.8557C72.9185 20.8557 60.2683 15.4303 50.9627 24.5807C51.1906 23.7855 51.6306 18.5511 49.7606 14.418C47.7884 10.039 40.8845 0.5512 40.7666 0.705537C40.6461 0.548584 33.7396 10.0364 31.7674 14.4154C29.8974 18.5485 30.3374 23.7855 30.5705 24.5781C21.2623 15.4277 8.60948 20.8531 8.60948 20.8531C13.3003 28.1121 12.2343 32.2557 14.7408 35.5465C17.5615 39.2558 21.058 41.0084 22.763 41.7043C14.8167 39.0962 0.762695 40.017 0.762695 40.017C0.762695 52.8531 15.4505 58.8697 15.4505 58.8697L8.22709 64.2244C13.0698 70.5156 26.4036 71.214 26.4036 71.214V74.7036C35.0596 74.7036 39.5671 67.5152 40.7666 65.2655C41.9583 67.5152 46.4684 74.7036 55.1218 74.7036V71.214C55.1218 71.214 68.4608 70.5156 73.3035 64.2244L66.0801 58.8697C66.0801 58.8697 80.7627 52.8505 80.7627 40.017" fill="#F47D29"/>
<path d="M74.5384 41.7959C74.0737 41.012 73.0494 40.7438 72.2547 41.2021L42.105 58.5022V50.4472L55.1813 43.0642C55.9786 42.6136 56.2585 41.6006 55.7965 40.8115C55.3397 40.0276 54.318 39.7464 53.5207 40.2047L42.105 46.6476V38.551L65.9634 24.7224C66.7581 24.2589 67.0274 23.251 66.5574 22.462C66.0901 21.6807 65.0658 21.4177 64.2711 21.8786L42.105 34.728V7.3521C42.105 6.44062 41.3552 5.70361 40.4339 5.70361C39.5125 5.70361 38.7627 6.44062 38.7627 7.3521V87.7036H42.105V62.3148L73.9312 44.0512C74.7285 43.5928 75.0004 42.5824 74.5357 41.7985" fill="#DB5C1E"/>
</svg>
