<svg width="57" height="103" viewBox="0 0 57 103" fill="none" xmlns="http://www.w3.org/2000/svg">
<path d="M2.08329 58.4052C5.22481 62.6892 14.2207 59.6625 18.6237 57.9142C18.6237 57.9142 -1.7848 69.4476 4.12537 78.0578C8.30011 84.148 17.9111 78.5348 19.6169 77.4686C19.4392 79.4431 19.2371 82.1086 19.1081 85.1581C18.7021 94.8134 23.6679 102.387 28.5048 102.794V102.815C28.5727 102.815 28.6424 102.808 28.7121 102.806C28.7783 102.808 28.8463 102.815 28.9125 102.815V102.794C33.7476 102.387 38.7151 94.8134 38.3057 85.1581C38.1768 82.0297 37.9677 79.3133 37.7882 77.3283C38.5252 77.8088 49.0701 84.518 53.4993 78.0578C59.4042 69.4476 39.0009 57.9142 39.0009 57.9142C43.4004 59.6625 52.3963 62.6892 55.5413 58.4052C58.6829 54.1176 55.7191 49.1322 51.9067 46.4772C50.2898 45.3461 38.3179 37.7022 38.3179 37.7022C38.3179 37.7022 43.2192 40.1993 45.0853 35.2577C48.0613 27.3577 31.1218 19.6524 29.0676 18.7493V18.6616C29.0676 18.6616 29.031 18.6757 28.9648 18.7072C28.8986 18.6757 28.8655 18.6616 28.8655 18.6616H28.7627C28.7627 18.6616 28.7261 18.6757 28.6599 18.7072C28.5971 18.6757 28.5571 18.6616 28.5571 18.6616V18.7493C26.501 19.6542 9.5616 27.3577 12.5411 35.2577C14.4054 40.1993 19.3067 37.7022 19.3067 37.7022C19.3067 37.7022 7.33832 45.3461 5.71965 46.4772C1.90557 49.1322 -1.05822 54.1176 2.08504 58.4052" fill="#F7D98A"/>
<path d="M27.5571 0.814941V40.911L6.11363 53.2879C5.58394 53.5913 5.40273 54.2699 5.70417 54.8047C5.90802 55.1572 6.28089 55.3606 6.66422 55.3606C6.84891 55.3606 7.03709 55.3133 7.20958 55.2151L27.5571 43.4695V51.5799L21.0127 55.4045C20.4883 55.7131 20.3071 56.3918 20.6137 56.9213C20.8176 57.2773 21.1887 57.4737 21.5703 57.4737C21.755 57.4737 21.9467 57.4229 22.1226 57.3229L27.5589 54.1454V62.2418L8.26024 73.4087C7.73404 73.7121 7.54935 74.3942 7.85427 74.9255C8.05812 75.2815 8.43099 75.4832 8.81258 75.4832C8.99901 75.4832 9.18719 75.4323 9.36143 75.3341L27.5589 64.802V96.7052C27.5589 97.3172 28.052 97.8153 28.6601 97.8153C29.2682 97.8153 29.7612 97.3172 29.7612 96.7052V0.814941H27.5589H27.5571Z" fill="#FCCF76"/>
</svg>
